<svg width="229.345" height="229.345" xmlns="http://www.w3.org/2000/svg">

 <g>
  <title>background</title>
  <rect fill="none" id="canvas_background" height="40.2" width="582" y="-1" x="-1"/>
 </g>
 <g>
  <title>Layer 1</title>
  <g transform="rotate(-90 114.67250061035158,114.67300415039062) " id="svg_1">
   <g id="svg_2">
    <g id="svg_3">
     <path id="svg_4" fill="#010002" d="m126.367,114.545l3.332,0l99.646,38.573l0,-32.72l-22.96,-11.871l0,-23.976c0,-2.99 -2.433,-5.413 -5.442,-5.413c-2.999,0 -5.422,2.423 -5.422,5.413l0,18.387l-29.271,-15.114l0,-24.865c0,-2.98 -2.443,-5.383 -5.432,-5.383s-5.422,2.403 -5.422,5.383l0,19.267l-25.715,-13.268l-1.378,0l1.798,-41.699c-0.02,-10.063 -8.158,-18.221 -18.231,-18.221c-10.063,0 -18.231,8.148 -18.231,18.221l1.798,41.699l-2.198,0l-18.996,10.473l0,-16.472c0,-2.98 -2.433,-5.383 -5.432,-5.383c-2.999,0 -5.403,2.403 -5.403,5.383l0,22.481l-23.868,13.151l0,-17.762c0,-2.99 -2.443,-5.422 -5.422,-5.422c-2.999,0 -5.422,2.433 -5.422,5.422l0,23.742l-28.696,15.827l0,32.73l93.227,-38.573l4.143,0l2.697,62.998c0,3.615 0.244,6.986 1.006,9.839l-30.366,16.727l-3.879,16.189l38.895,-6.722l13.668,0l41.289,6.722l-3.879,-16.189l-33.971,-17.519c0.606,-2.687 0.84,-5.764 0.84,-9.057l2.697,-62.998z"/>
    </g>
   </g>
  </g>
  <g id="svg_5"/>
  <g id="svg_6"/>
  <g id="svg_7"/>
  <g id="svg_8"/>
  <g id="svg_9"/>
  <g id="svg_10"/>
  <g id="svg_11"/>
  <g id="svg_12"/>
  <g id="svg_13"/>
  <g id="svg_14"/>
  <g id="svg_15"/>
  <g id="svg_16"/>
  <g id="svg_17"/>
  <g id="svg_18"/>
  <g transform="rotate(-90 0,0) " id="svg_19"/>
 </g>
</svg>